<svg width="212" height="230" viewBox="0 0 212 230" fill="none" xmlns="http://www.w3.org/2000/svg">
<path d="M150.863 108.262C149.545 108.262 148.238 108.309 146.94 108.392L143.675 54.1309H116.418V40.2779C116.418 18.0685 98.3496 0 76.1403 0C53.9313 0 35.8628 18.0685 35.8628 40.2779V54.1309H8.57865L0.268555 202.935H100.268C111.2 219.243 129.798 230 150.863 230C184.426 230 211.732 202.694 211.732 169.131C211.732 135.567 184.426 108.262 150.863 108.262ZM49.3394 40.2779C49.3394 25.4999 61.3623 13.4766 76.1403 13.4766C90.9182 13.4766 102.942 25.4995 102.942 40.2779V54.1309H49.3394V40.2779ZM69.6666 96.0228L76.461 100.534V121.795H62.8721V100.534L69.6666 96.0228ZM14.5187 189.458L21.3234 67.6074H35.8628V87.9346H49.3394V67.6074H62.9283V84.3202L49.3956 93.3045V135.271H89.9375V93.3045L76.4048 84.3202V67.6074H102.942V87.9346H116.418V67.6074H130.985L133.581 110.765C108.409 118.231 89.9937 141.569 89.9937 169.131C89.9937 176.256 91.2286 183.098 93.4886 189.458H14.5187ZM150.863 216.523C124.73 216.523 103.47 195.263 103.47 169.131C103.47 142.998 124.73 121.738 150.863 121.738C176.995 121.738 198.255 142.998 198.255 169.131C198.255 195.263 176.995 216.523 150.863 216.523Z" fill="#BC8F49"/>
</svg>
